<svg width="35" height="35" viewBox="0 0 35 35" fill="none" xmlns="http://www.w3.org/2000/svg">
<rect x="0.5" y="0.5" width="34" height="34" rx="5.5" stroke="#736037"/>
<mask id="path-2-outside-1_73_416" maskUnits="userSpaceOnUse" x="10" y="7" width="16" height="22" fill="black">
<rect fill="white" x="10" y="7" width="16" height="22"/>
<path d="M18.7369 27.88C17.8435 27.88 16.9702 27.7733 16.1169 27.56C15.2769 27.3467 14.5169 27.0067 13.8369 26.54C13.1569 26.0867 12.6169 25.5 12.2169 24.78C11.8169 24.06 11.6169 23.1933 11.6169 22.18C11.6169 21.0867 11.8369 20.0867 12.2769 19.18C12.7169 18.26 13.3369 17.4467 14.1369 16.74C14.9369 16.0333 15.8835 15.4467 16.9769 14.98C18.0835 14.5 19.2902 14.16 20.5969 13.96L21.2569 16.6C20.0835 16.8133 19.0635 17.0933 18.1969 17.44C17.3435 17.7867 16.6369 18.1933 16.0769 18.66C15.5169 19.1267 15.0969 19.6267 14.8169 20.16C14.5502 20.7067 14.4169 21.28 14.4169 21.88C14.4169 22.36 14.5035 22.78 14.6769 23.14C14.8635 23.5 15.1102 23.8 15.4169 24.04C15.7235 24.2933 16.0635 24.4933 16.4369 24.64C16.8102 24.8 17.1969 24.9133 17.5969 24.98C17.9969 25.0467 18.3769 25.08 18.7369 25.08C19.6569 25.08 20.5102 24.9933 21.2969 24.82C22.0969 24.6467 22.7969 24.4333 23.3969 24.18L24.1969 26.76C23.8769 26.92 23.4235 27.0867 22.8369 27.26C22.2635 27.4333 21.6169 27.58 20.8969 27.7C20.1902 27.82 19.4702 27.88 18.7369 27.88ZM14.7569 16.8C14.2902 16.6133 13.8569 16.3467 13.4569 16C13.0702 15.6533 12.7569 15.2267 12.5169 14.72C12.2902 14.2 12.1769 13.6067 12.1769 12.94C12.1769 12.1 12.3969 11.3733 12.8369 10.76C13.2769 10.1467 13.8635 9.67333 14.5969 9.34C15.3302 9.00667 16.1302 8.84 16.9969 8.84C17.4235 8.84 17.8169 8.86667 18.1769 8.92C18.5502 8.97333 18.9302 9.05333 19.3169 9.16L18.8769 11.82C18.5969 11.7533 18.3102 11.7 18.0169 11.66C17.7235 11.62 17.4635 11.6 17.2369 11.6C16.7702 11.6 16.3635 11.6667 16.0169 11.8C15.6835 11.9333 15.4235 12.1267 15.2369 12.38C15.0635 12.62 14.9769 12.9067 14.9769 13.24C14.9769 13.5067 15.0569 13.76 15.2169 14C15.3902 14.24 15.6102 14.4533 15.8769 14.64C16.1435 14.8133 16.4369 14.96 16.7569 15.08C17.0769 15.1867 17.3902 15.2467 17.6969 15.26L14.7569 16.8Z"/>
</mask>
<path d="M16.1169 27.56L15.8707 28.5292L15.8743 28.5301L16.1169 27.56ZM13.8369 26.54L14.4028 25.7154L14.3916 25.708L13.8369 26.54ZM12.2169 24.78L13.091 24.2944L12.2169 24.78ZM12.2769 19.18L13.1765 19.6166L13.179 19.6115L12.2769 19.18ZM14.1369 16.74L14.7989 17.4895L14.1369 16.74ZM16.9769 14.98L17.3694 15.8997L17.3748 15.8974L16.9769 14.98ZM20.5969 13.96L21.567 13.7175L21.3461 12.8337L20.4456 12.9715L20.5969 13.96ZM21.2569 16.6L21.4358 17.5839L22.4859 17.3929L22.227 16.3575L21.2569 16.6ZM18.1969 17.44L17.8255 16.5115L17.8205 16.5135L18.1969 17.44ZM16.0769 18.66L15.4367 17.8918L16.0769 18.66ZM14.8169 20.16L13.9315 19.6952L13.9246 19.7083L13.9181 19.7216L14.8169 20.16ZM14.6769 23.14L13.7759 23.5738L13.7823 23.5872L13.7891 23.6003L14.6769 23.14ZM15.4169 24.04L16.0538 23.269L16.0436 23.2606L16.0332 23.2525L15.4169 24.04ZM16.4369 24.64L16.8308 23.7209L16.8167 23.7148L16.8025 23.7092L16.4369 24.64ZM21.2969 24.82L21.0851 23.8427L21.0817 23.8434L21.2969 24.82ZM23.3969 24.18L24.352 23.8838L24.025 22.8293L23.0079 23.2588L23.3969 24.18ZM24.1969 26.76L24.6441 27.6544L25.4035 27.2747L25.152 26.4638L24.1969 26.76ZM22.8369 27.26L22.5535 26.301L22.5475 26.3028L22.8369 27.26ZM20.8969 27.7L20.7325 26.7136L20.7295 26.7141L20.8969 27.7ZM14.7569 16.8L14.3855 17.7285L14.813 17.8995L15.2209 17.6858L14.7569 16.8ZM13.4569 16L12.7893 16.7446L12.7956 16.7502L12.8019 16.7557L13.4569 16ZM12.5169 14.72L11.6002 15.1196L11.6064 15.1339L11.6131 15.1481L12.5169 14.72ZM12.8369 10.76L13.6494 11.3429L12.8369 10.76ZM14.5969 9.34L14.1831 8.42963L14.1831 8.42963L14.5969 9.34ZM18.1769 8.92L18.0303 9.90922L18.0355 9.90995L18.1769 8.92ZM19.3169 9.16L20.3035 9.32319L20.4503 8.43532L19.5828 8.19601L19.3169 9.16ZM18.8769 11.82L18.6453 12.7928L19.6885 13.0412L19.8635 11.9832L18.8769 11.82ZM18.0169 11.66L18.152 10.6692H18.152L18.0169 11.66ZM16.0169 11.8L15.6579 10.8666L15.6455 10.8715L16.0169 11.8ZM15.2369 12.38L14.4318 11.7868L14.4262 11.7945L15.2369 12.38ZM15.2169 14L14.3848 14.5547L14.3952 14.5703L14.4062 14.5855L15.2169 14ZM15.8769 14.64L15.3034 15.4592L15.3175 15.4691L15.3319 15.4784L15.8769 14.64ZM16.7569 15.08L16.4058 16.0163L16.4231 16.0228L16.4406 16.0287L16.7569 15.08ZM17.6969 15.26L18.1609 16.1458L21.4513 14.4223L17.7403 14.2609L17.6969 15.26ZM18.7369 26.88C17.924 26.88 17.1322 26.7831 16.3594 26.5899L15.8743 28.5301C16.8082 28.7636 17.7631 28.88 18.7369 28.88V26.88ZM16.363 26.5908C15.6314 26.405 14.9806 26.1121 14.4027 25.7155L13.271 27.3645C14.0531 27.9012 14.9223 28.2884 15.8707 28.5292L16.363 26.5908ZM14.3916 25.708C13.8452 25.3437 13.4143 24.8762 13.091 24.2944L11.3427 25.2656C11.8195 26.1238 12.4685 26.8296 13.2822 27.3721L14.3916 25.708ZM13.091 24.2944C12.7905 23.7535 12.6169 23.0621 12.6169 22.18H10.6169C10.6169 23.3245 10.8432 24.3665 11.3427 25.2656L13.091 24.2944ZM12.6169 22.18C12.6169 21.2249 12.808 20.3759 13.1765 19.6166L11.3772 18.7434C10.8657 19.7974 10.6169 20.9485 10.6169 22.18H12.6169ZM13.179 19.6115C13.5584 18.8181 14.0947 18.1115 14.7989 17.4895L13.4748 15.9905C12.5791 16.7818 11.8753 17.7019 11.3747 18.7485L13.179 19.6115ZM14.7989 17.4895C15.5102 16.8612 16.3634 16.3291 17.3694 15.8997L16.5843 14.0603C15.4037 14.5642 14.3635 15.2055 13.4748 15.9905L14.7989 17.4895ZM17.3748 15.8974C18.3955 15.4547 19.5184 15.1367 20.7482 14.9485L20.4456 12.9715C19.062 13.1833 17.7716 13.5453 16.579 14.0626L17.3748 15.8974ZM19.6267 14.2025L20.2867 16.8425L22.227 16.3575L21.567 13.7175L19.6267 14.2025ZM21.078 15.6161C19.856 15.8383 18.7686 16.1343 17.8255 16.5115L18.5683 18.3685C19.3584 18.0524 20.3111 17.7883 21.4358 17.5839L21.078 15.6161ZM17.8205 16.5135C16.8956 16.8893 16.0936 17.3443 15.4367 17.8918L16.7171 19.4282C17.1801 19.0423 17.7915 18.684 18.5733 18.3665L17.8205 16.5135ZM15.4367 17.8918C14.7965 18.4253 14.2839 19.0239 13.9315 19.6952L15.7023 20.6248C15.9099 20.2294 16.2372 19.8281 16.7171 19.4282L15.4367 17.8918ZM13.9181 19.7216C13.5858 20.4029 13.4169 21.1259 13.4169 21.88H15.4169C15.4169 21.4341 15.5146 21.0105 15.7156 20.5984L13.9181 19.7216ZM13.4169 21.88C13.4169 22.4804 13.5256 23.0539 13.7759 23.5738L15.5779 22.7062C15.4815 22.5061 15.4169 22.2396 15.4169 21.88H13.4169ZM13.7891 23.6003C14.039 24.0822 14.3763 24.4955 14.8006 24.8275L16.0332 23.2525C15.8441 23.1045 15.6881 22.9178 15.5646 22.6797L13.7891 23.6003ZM14.78 24.811C15.1688 25.1321 15.6004 25.3858 16.0712 25.5708L16.8025 23.7092C16.5266 23.6009 16.2783 23.4546 16.0538 23.269L14.78 24.811ZM16.043 25.5591C16.4897 25.7506 16.9534 25.8866 17.4325 25.9664L17.7613 23.9936C17.4403 23.9401 17.1307 23.8494 16.8308 23.7209L16.043 25.5591ZM17.4325 25.9664C17.8801 26.041 18.3154 26.08 18.7369 26.08V24.08C18.4383 24.08 18.1136 24.0523 17.7613 23.9936L17.4325 25.9664ZM18.7369 26.08C19.7192 26.08 20.6456 25.9875 21.5121 25.7966L21.0817 23.8434C20.3748 23.9992 19.5945 24.08 18.7369 24.08V26.08ZM21.5086 25.7973C22.3546 25.614 23.1163 25.384 23.7858 25.1012L23.0079 23.2588C22.4775 23.4827 21.8391 23.6793 21.0851 23.8427L21.5086 25.7973ZM22.4417 24.4762L23.2417 27.0562L25.152 26.4638L24.352 23.8838L22.4417 24.4762ZM23.7497 25.8656C23.5064 25.9872 23.1174 26.1344 22.5535 26.301L23.1202 28.219C23.7297 28.0389 24.2474 27.8528 24.6441 27.6544L23.7497 25.8656ZM22.5475 26.3028C22.0229 26.4614 21.419 26.5992 20.7325 26.7136L21.0613 28.6864C21.8148 28.5608 22.5042 28.4053 23.1263 28.2172L22.5475 26.3028ZM20.7295 26.7141C20.0794 26.8245 19.4154 26.88 18.7369 26.88V28.88C19.525 28.88 20.3011 28.8155 21.0643 28.6859L20.7295 26.7141ZM15.1283 15.8715C14.7705 15.7284 14.4321 15.5219 14.1118 15.2443L12.8019 16.7557C13.2817 17.1714 13.8099 17.4983 14.3855 17.7285L15.1283 15.8715ZM14.1244 15.2554C13.8444 15.0044 13.6083 14.6881 13.4206 14.2919L11.6131 15.1481C11.9055 15.7652 12.296 16.3023 12.7893 16.7446L14.1244 15.2554ZM13.4336 14.3204C13.2706 13.9466 13.1769 13.493 13.1769 12.94H11.1769C11.1769 13.7204 11.3098 14.4534 11.6002 15.1196L13.4336 14.3204ZM13.1769 12.94C13.1769 12.2844 13.345 11.7673 13.6494 11.3429L12.0243 10.1771C11.4488 10.9794 11.1769 11.9156 11.1769 12.94H13.1769ZM13.6494 11.3429C13.9806 10.8813 14.4255 10.5163 15.0107 10.2504L14.1831 8.42963C13.3015 8.83033 12.5732 9.41203 12.0243 10.1771L13.6494 11.3429ZM15.0107 10.2504C15.6044 9.98049 16.262 9.84 16.9969 9.84V7.84C15.9985 7.84 15.056 8.03284 14.1831 8.42963L15.0107 10.2504ZM16.9969 9.84C17.3826 9.84 17.7263 9.86416 18.0303 9.9092L18.3234 7.9308C17.9075 7.86917 17.4645 7.84 16.9969 7.84V9.84ZM18.0355 9.90995C18.3642 9.95692 18.7026 10.0279 19.0509 10.124L19.5828 8.19601C19.1578 8.07876 18.7362 7.98975 18.3183 7.93005L18.0355 9.90995ZM18.3303 8.9968L17.8903 11.6568L19.8635 11.9832L20.3035 9.32319L18.3303 8.9968ZM19.1085 10.8472C18.7957 10.7727 18.4768 10.7135 18.152 10.6692L17.8818 12.6508C18.1436 12.6865 18.398 12.7339 18.6453 12.7928L19.1085 10.8472ZM18.152 10.6692C17.8266 10.6248 17.52 10.6 17.2369 10.6V12.6C17.4071 12.6 17.6205 12.6152 17.8818 12.6508L18.152 10.6692ZM17.2369 10.6C16.6777 10.6 16.1443 10.6796 15.6579 10.8667L16.3759 12.7333C16.5828 12.6538 16.8627 12.6 17.2369 12.6V10.6ZM15.6455 10.8715C15.1641 11.0641 14.7439 11.3633 14.4318 11.7868L16.0419 12.9732C16.1032 12.8901 16.203 12.8026 16.3883 12.7285L15.6455 10.8715ZM14.4262 11.7945C14.1145 12.226 13.9769 12.7241 13.9769 13.24H15.9769C15.9769 13.0892 16.0125 13.014 16.0476 12.9655L14.4262 11.7945ZM13.9769 13.24C13.9769 13.7203 14.1247 14.1645 14.3848 14.5547L16.0489 13.4453C15.9891 13.3555 15.9769 13.293 15.9769 13.24H13.9769ZM14.4062 14.5855C14.6512 14.9247 14.9542 15.2148 15.3034 15.4592L16.4503 13.8208C16.2662 13.6919 16.1292 13.5553 16.0276 13.4145L14.4062 14.5855ZM15.3319 15.4784C15.6638 15.6942 16.0228 15.8727 16.4058 16.0163L17.108 14.1437C16.851 14.0473 16.6233 13.9325 16.4219 13.8016L15.3319 15.4784ZM16.4406 16.0287C16.8402 16.1619 17.2453 16.2413 17.6534 16.2591L17.7403 14.2609C17.5351 14.252 17.3136 14.2115 17.0731 14.1313L16.4406 16.0287ZM17.2329 14.3742L14.2929 15.9142L15.2209 17.6858L18.1609 16.1458L17.2329 14.3742Z" fill="#736037" mask="url(#path-2-outside-1_73_416)"/>
</svg>
