<svg width="39" height="37" viewBox="0 0 39 37" fill="none" xmlns="http://www.w3.org/2000/svg">
<path d="M1.32698 2.63803L2.21799 3.09202L1.32698 2.63803ZM1.76182 35.8284L1.06888 35.1074H1.06888L1.76182 35.8284ZM33.2 27.6704V28.6704V27.6704ZM36.362 27.3434L36.816 28.2345V28.2345L36.362 27.3434ZM37.673 26.0324L38.564 26.4864L37.673 26.0324ZM37.673 2.63803L38.564 2.18404V2.18404L37.673 2.63803ZM36.362 1.32698L36.816 0.435975V0.435974L36.362 1.32698ZM2.63803 1.32698L3.09202 2.21799L2.63803 1.32698ZM9.9597 27.9494L9.26676 27.2284L9.9597 27.9494ZM10.6526 27.6704V26.6704V27.6704ZM2 5.8C2 4.94342 2.00078 4.36113 2.03755 3.91104C2.07337 3.47262 2.1383 3.24842 2.21799 3.09202L0.435974 2.18404C0.188683 2.66937 0.0901188 3.18608 0.0441936 3.74817C-0.000777721 4.2986 0 4.97642 0 5.8H2ZM2 16.5577V5.8H0V16.5577H2ZM0 16.5577V27.6704H2V16.5577H0ZM0 27.6704V35.5039H2V27.6704H0ZM0 35.5039C0 36.7819 1.53334 37.4349 2.45477 36.5494L1.06888 35.1074C1.41839 34.7715 2 35.0192 2 35.5039H0ZM2.45477 36.5494L10.6526 28.6704L9.26676 27.2284L1.06888 35.1074L2.45477 36.5494ZM33.2 26.6704L10.6526 26.6704L10.6526 28.6704L33.2 28.6704V26.6704ZM35.908 26.4524C35.7516 26.5321 35.5274 26.5971 35.089 26.6329C34.6389 26.6697 34.0566 26.6704 33.2 26.6704V28.6704C34.0236 28.6704 34.7014 28.6712 35.2518 28.6262C35.8139 28.5803 36.3306 28.4817 36.816 28.2345L35.908 26.4524ZM36.782 25.5784C36.5903 25.9547 36.2843 26.2607 35.908 26.4524L36.816 28.2345C37.5686 27.851 38.1805 27.239 38.564 26.4864L36.782 25.5784ZM37 22.8704C37 23.727 36.9992 24.3093 36.9624 24.7594C36.9266 25.1978 36.8617 25.422 36.782 25.5784L38.564 26.4864C38.8113 26.0011 38.9099 25.4844 38.9558 24.9223C39.0008 24.3718 39 23.694 39 22.8704H37ZM37 5.8V22.8704H39V5.8H37ZM36.782 3.09202C36.8617 3.24842 36.9266 3.47262 36.9624 3.91104C36.9992 4.36113 37 4.94342 37 5.8H39C39 4.97642 39.0008 4.2986 38.9558 3.74817C38.9099 3.18608 38.8113 2.66937 38.564 2.18404L36.782 3.09202ZM35.908 2.21799C36.2843 2.40973 36.5903 2.7157 36.782 3.09202L38.564 2.18404C38.1805 1.43139 37.5686 0.819468 36.816 0.435975L35.908 2.21799ZM33.2 2C34.0566 2 34.6389 2.00078 35.089 2.03755C35.5274 2.07337 35.7516 2.1383 35.908 2.21799L36.816 0.435974C36.3306 0.188683 35.8139 0.0901188 35.2518 0.0441936C34.7014 -0.000777721 34.0236 0 33.2 0V2ZM5.8 2H33.2V0H5.8V2ZM3.09202 2.21799C3.24842 2.1383 3.47262 2.07337 3.91104 2.03755C4.36113 2.00078 4.94342 2 5.8 2V0C4.97642 0 4.2986 -0.000777721 3.74817 0.0441936C3.18608 0.0901188 2.66937 0.188683 2.18404 0.435974L3.09202 2.21799ZM2.21799 3.09202C2.40973 2.71569 2.71569 2.40973 3.09202 2.21799L2.18404 0.435974C1.43139 0.819467 0.819467 1.43139 0.435974 2.18404L2.21799 3.09202ZM10.6526 28.6704H10.6526L10.6526 26.6704C10.1359 26.6704 9.63929 26.8704 9.26676 27.2284L10.6526 28.6704Z" fill="#574D41"/>
<path d="M10.25 10.229L28.75 10.229" stroke="#574D41" stroke-width="2" stroke-linecap="round" stroke-linejoin="round"/>
<path d="M10.25 18.5356L22.275 18.5356" stroke="#574D41" stroke-width="2" stroke-linecap="round" stroke-linejoin="round"/>
</svg>
