<svg width="30" height="30" viewBox="0 0 30 30" fill="none" xmlns="http://www.w3.org/2000/svg">
<circle cx="15" cy="15" r="14" stroke="#E40021" stroke-width="2"/>
<path d="M16.0533 5.54545L15.8317 17.9801H13.4709L13.2493 5.54545H16.0533ZM14.6555 23.1619C14.1839 23.1619 13.7805 22.9972 13.4453 22.6676C13.1101 22.3324 12.9453 21.929 12.951 21.4574C12.9453 20.9915 13.1101 20.5937 13.4453 20.2642C13.7805 19.929 14.1839 19.7614 14.6555 19.7614C15.1158 19.7614 15.5135 19.929 15.8487 20.2642C16.1839 20.5937 16.3544 20.9915 16.3601 21.4574C16.3544 21.7699 16.272 22.0568 16.1129 22.3182C15.9595 22.5739 15.755 22.7784 15.4993 22.9318C15.2436 23.0852 14.9624 23.1619 14.6555 23.1619Z" fill="#E40021"/>
</svg>
