<svg width="66" height="68" viewBox="0 0 66 68" fill="none" xmlns="http://www.w3.org/2000/svg">
<path d="M30.9399 58.5811L30.7136 59.027H30.7136L30.9399 58.5811ZM34.5601 58.5811L34.7864 59.027L34.5601 58.5811ZM37.2384 57.222L37.0121 56.7761L37.2384 57.222ZM38.3566 55.4387L37.8569 55.4198L38.3566 55.4387ZM38.1748 56.592L38.5958 56.8616L38.1748 56.592ZM27.1434 55.4387L27.6431 55.4198L27.1434 55.4387ZM28.2616 57.222L28.0353 57.6679L28.2616 57.222ZM27.3252 56.592L27.7463 56.3224L27.3252 56.592ZM23.5901 42.5682L23.8667 42.1516L23.5901 42.5682ZM24.3437 43.4343L23.8872 43.6384L24.3437 43.4343ZM24.0798 42.9408L23.6982 43.2639L24.0798 42.9408ZM41.9099 42.5681L42.1865 42.9847L41.9099 42.5681ZM41.1563 43.4343L41.6128 43.6384L41.1563 43.4343ZM41.4202 42.9408L41.0386 42.6178L41.4202 42.9408ZM49 28.333C49 34.1183 46.0685 39.2059 41.6333 42.1516L42.1865 42.9847C46.8925 39.8591 50 34.463 50 28.333H49ZM32.75 11.833C41.7177 11.833 49 19.2133 49 28.333H50C50 18.675 42.2839 10.833 32.75 10.833V11.833ZM16.5 28.333C16.5 19.2133 23.7823 11.833 32.75 11.833V10.833C23.2161 10.833 15.5 18.675 15.5 28.333H16.5ZM23.8667 42.1516C19.4316 39.2059 16.5 34.1183 16.5 28.333H15.5C15.5 34.463 18.6075 39.8591 23.3135 42.9847L23.8667 42.1516ZM27.6431 55.4198C27.4835 51.2068 26.5163 47.0691 24.8002 43.2303L23.8872 43.6384C25.5512 47.3606 26.489 51.3727 26.6438 55.4577L27.6431 55.4198ZM31.1661 58.1352L28.4879 56.7761L28.0353 57.6679L30.7136 59.027L31.1661 58.1352ZM34.3339 58.1352C33.3384 58.6404 32.1616 58.6404 31.1661 58.1352L30.7136 59.027C31.9935 59.6765 33.5065 59.6765 34.7864 59.027L34.3339 58.1352ZM37.0121 56.7761L34.3339 58.1352L34.7864 59.027L37.4647 57.6679L37.0121 56.7761ZM40.6998 43.2303C38.9837 47.0691 38.0165 51.2068 37.8569 55.4198L38.8562 55.4577C39.011 51.3727 39.9488 47.3606 41.6128 43.6384L40.6998 43.2303ZM37.4647 57.6679C37.7192 57.5387 37.9421 57.4262 38.1174 57.3146C38.3011 57.1977 38.4688 57.0601 38.5958 56.8616L37.7537 56.3224C37.7339 56.3533 37.6966 56.3971 37.5804 56.471C37.4558 56.5504 37.284 56.6381 37.0121 56.7761L37.4647 57.6679ZM37.8569 55.4198C37.8449 55.7373 37.8367 55.9408 37.8163 56.0947C37.797 56.2405 37.7719 56.294 37.7537 56.3224L38.5958 56.8616C38.7244 56.6608 38.7786 56.4455 38.8076 56.226C38.8356 56.0147 38.8449 55.7562 38.8562 55.4577L37.8569 55.4198ZM26.6438 55.4577C26.6551 55.7562 26.6644 56.0147 26.6924 56.226C26.7214 56.4455 26.7756 56.6608 26.9042 56.8616L27.7463 56.3224C27.7281 56.294 27.703 56.2405 27.6837 56.0947C27.6633 55.9408 27.6551 55.7373 27.6431 55.4198L26.6438 55.4577ZM28.4879 56.7761C28.216 56.6381 28.0442 56.5504 27.9196 56.471C27.8034 56.3971 27.7661 56.3533 27.7463 56.3224L26.9042 56.8616C27.0312 57.0601 27.1989 57.1977 27.3826 57.3146C27.5579 57.4262 27.7808 57.5387 28.0353 57.6679L28.4879 56.7761ZM23.3135 42.9847C23.6059 43.1789 23.6636 43.223 23.6982 43.2639L24.4614 42.6178C24.3126 42.4419 24.1049 42.3098 23.8667 42.1516L23.3135 42.9847ZM24.8002 43.2303C24.6963 42.9979 24.6094 42.7926 24.4614 42.6178L23.6982 43.2639C23.7337 43.3058 23.7616 43.3573 23.8872 43.6384L24.8002 43.2303ZM41.6333 42.1516C41.3951 42.3098 41.1874 42.4419 41.0386 42.6178L41.8018 43.2639C41.8364 43.223 41.8941 43.1789 42.1865 42.9847L41.6333 42.1516ZM41.6128 43.6384C41.7384 43.3572 41.7663 43.3058 41.8018 43.2639L41.0386 42.6178C40.8906 42.7926 40.8037 42.9979 40.6998 43.2303L41.6128 43.6384Z" fill="#574D41"/>
<path d="M39.875 46.75V46.75C35.4713 48.5649 30.5287 48.5649 26.125 46.75V46.75" stroke="#574D41"/>
<path d="M30.3571 37V26.6786C30.3571 25.1992 29.1579 24 27.6786 24V24C26.1992 24 25 25.1992 25 26.6786V26.9545C25 28.5863 26.3228 29.9091 27.9545 29.9091H37.0455C38.6772 29.9091 40 28.5863 40 26.9545V26.6786C40 25.1992 38.8008 24 37.3214 24V24C35.8421 24 34.6429 25.1992 34.6429 26.6786V37" stroke="#574D41" stroke-linecap="round"/>
</svg>
