<svg width="51" height="43" viewBox="0 0 51 43" fill="none" xmlns="http://www.w3.org/2000/svg">
<path d="M29.75 26.875L21.25 34.0417L29.75 41.2083" stroke="#A7946C" stroke-width="2"/>
<path d="M38.3821 15.2293C39.6877 17.1359 40.375 19.2986 40.375 21.5002C40.375 23.7017 39.6877 25.8644 38.3821 27.771C37.0766 29.6776 35.1988 31.2608 32.9375 32.3616C30.6762 33.4623 28.1111 34.0418 25.5 34.0418" stroke="#A7946C" stroke-width="2" stroke-linecap="round"/>
<path d="M21.25 16.125L29.75 8.95833L21.25 1.79167" stroke="#A7946C" stroke-width="2"/>
<path d="M12.6179 27.7707C11.3123 25.8641 10.625 23.7014 10.625 21.4998C10.625 19.2983 11.3123 17.1356 12.6179 15.229C13.9234 13.3224 15.8012 11.7392 18.0625 10.6384C20.3238 9.53768 22.8889 8.95817 25.5 8.95817" stroke="#A7946C" stroke-width="2" stroke-linecap="round"/>
</svg>
