<svg width="31" height="33" viewBox="0 0 31 33" fill="none" xmlns="http://www.w3.org/2000/svg">
<path d="M7.28587 25.9012C7.0275 25.8443 6.82081 25.7873 6.56245 25.6735C6.30408 25.5597 6.09739 25.5028 5.8907 25.3889C5.42564 25.1613 5.01226 24.8767 4.59888 24.5352C3.77211 23.9091 3.10037 23.0554 2.58364 22.0309C2.06691 21.0634 1.75688 19.925 1.7052 18.8436C1.65353 18.2745 1.7052 17.7623 1.75688 17.1931C1.80855 16.9085 1.86022 16.6809 1.91189 16.3963C1.96357 16.1117 2.06691 15.884 2.11858 15.5995L2.17026 16.3963C2.17026 16.6809 2.22193 16.9085 2.2736 17.1931C2.32528 17.7053 2.42862 18.2176 2.53197 18.6729C2.73866 19.6405 3.0487 20.5511 3.51375 21.4048C3.97881 22.2586 4.49553 23.0554 5.16728 23.7953C5.47732 24.1368 5.83903 24.4783 6.20074 24.8198C6.35575 24.9905 6.56245 25.1613 6.76914 25.332L7.28587 25.9012ZM7.13085 27.9501C6.97583 28.064 6.76914 28.1209 6.56245 28.1778C6.35575 28.2347 6.20074 28.2916 5.99405 28.2916C5.63234 28.3485 5.21895 28.4055 4.80557 28.3485C4.03048 28.2916 3.20371 28.064 2.53197 27.6656C1.80855 27.2671 1.18847 26.6411 0.775092 25.9012C0.568401 25.5597 0.36171 25.1613 0.206691 24.7629C0.155018 24.5921 0.103346 24.3645 0.0516728 24.1368C0.0516728 23.966 0 23.7953 0 23.5676C0.155018 23.7384 0.258364 23.9091 0.36171 24.023C0.516728 24.1937 0.620074 24.3645 0.723419 24.4783C0.981783 24.7629 1.18847 25.0474 1.44684 25.2751C1.96357 25.7873 2.48029 26.2427 3.10037 26.5842C3.66877 26.9257 4.34052 27.2102 4.96059 27.4379C5.27063 27.5517 5.63234 27.6086 5.99405 27.7225C6.14906 27.7794 6.35576 27.7794 6.51077 27.8363C6.76914 27.8932 6.92416 27.8932 7.13085 27.9501ZM18.8089 0.289186C19.0673 0.346101 19.274 0.459932 19.5323 0.573763C19.7907 0.687594 19.9974 0.801425 20.2041 0.915256C20.6691 1.19983 21.0825 1.48441 21.4959 1.8259C22.3227 2.50889 22.9944 3.41954 23.4595 4.44402C23.9245 5.4685 24.1829 6.60681 24.1829 7.6882C24.1829 8.25736 24.1312 8.7696 24.0279 9.33875C23.9762 9.62333 23.9245 9.85099 23.8212 10.1356C23.7178 10.4201 23.6661 10.6478 23.5628 10.8755L23.5111 10.0787C23.5111 9.79408 23.5111 9.56642 23.4595 9.28184L23.3044 7.74512C23.1494 6.77756 22.8394 5.80999 22.426 4.89934C22.0126 3.98869 21.4959 3.19188 20.8758 2.45198C20.5658 2.05357 20.2041 1.71207 19.894 1.31367C19.739 1.14292 19.5323 0.972172 19.3256 0.801425L18.8089 0.289186ZM23.3044 0.0615234C23.5111 0.118439 23.6661 0.175355 23.8212 0.289186C23.9762 0.346101 24.1829 0.459932 24.3379 0.573763C24.6479 0.801425 24.958 1.02909 25.268 1.31367C25.8364 1.88282 26.3015 2.56581 26.5598 3.36262C26.8699 4.15944 26.9732 5.01317 26.8699 5.86691C26.8182 6.26532 26.7148 6.66372 26.6115 7.06213C26.5598 7.23288 26.4565 7.46054 26.4048 7.63129C26.3015 7.80203 26.2498 7.97278 26.0948 8.14353V7.57437V7.00522C26.0948 6.60681 26.0431 6.26532 26.0431 5.92382C25.9397 5.18392 25.8364 4.50093 25.578 3.87486C25.3197 3.19188 25.0096 2.62272 24.6479 1.99665C24.4412 1.71207 24.2345 1.37058 24.0279 1.086C23.9245 0.915256 23.8212 0.801425 23.6661 0.630679C23.5628 0.346101 23.4078 0.175354 23.3044 0.0615234Z" fill="#42ADE2"/>
<path d="M4.13356 8.54216C3.1001 9.0544 2.73839 10.4204 3.20345 11.5587L9.71422 26.5275L13.3313 24.6493L6.82055 9.62355C6.35549 8.48524 5.16702 7.973 4.13356 8.54216ZM21.2373 20.4375L25.0611 18.4455L17.6202 1.3708C17.1034 0.232491 15.8633 -0.279749 14.7782 0.289406C13.7447 0.858561 13.2796 2.22453 13.7964 3.41976L21.2373 20.4375Z" fill="#FFDD67"/>
<path d="M14.8303 0.232513C14.727 0.289429 14.6236 0.346344 14.5203 0.460175C15.502 0.175597 16.5355 0.687837 17.0006 1.71232L24.4414 18.787L25.1132 18.4455L17.6723 1.37082C17.1556 0.175598 15.9154 -0.336642 14.8303 0.232513Z" fill="#EBA352"/>
<path d="M13.3314 24.5928L17.3102 22.4869L9.71431 5.07075C9.19759 3.87552 7.85409 3.30637 6.76897 3.87552C5.68384 4.44468 5.21878 5.92448 5.73551 7.11971L13.3314 24.5928Z" fill="#FFDD67"/>
<path d="M6.76927 3.932C6.66592 3.98891 6.56257 4.04583 6.45923 4.15966C7.44101 3.87508 8.57781 4.38732 9.04287 5.46872L13.7451 16.3396L14.8819 17.0795L9.71462 5.12722C9.19789 3.87508 7.90607 3.36284 6.76927 3.932Z" fill="#EBA352"/>
<path d="M16.6903 21.1207L20.6691 19.0149L13.0732 1.59871C12.5565 0.403487 11.213 -0.165668 10.1279 0.460403C9.04272 1.02956 8.57767 2.50936 9.0944 3.70459L16.6903 21.1207Z" fill="#FFDD67"/>
<path d="M10.1281 0.403189C10.0247 0.460104 9.92137 0.573935 9.81802 0.630851C10.7998 0.346273 11.9366 0.858513 12.4017 1.93991L17.724 14.2337L18.8608 14.9736L13.0734 1.59841C12.5567 0.346273 11.2132 -0.165967 10.1281 0.403189ZM4.13401 8.54211C4.03067 8.59902 3.92732 8.65594 3.82397 8.76977C4.75409 8.48519 5.73587 8.99743 6.14925 10.0219L10.0247 18.9577L11.1615 19.6976L6.821 9.68042C6.35594 8.48519 5.16747 7.97295 4.13401 8.54211Z" fill="#EBA352"/>
<path d="M30.3836 6.83469C28.9884 5.63946 26.7148 6.94852 25.578 11.0464C24.8029 13.8922 24.6996 14.7459 23.046 15.5997L22.1159 13.4938C22.1159 13.4938 7.44086 21.2912 8.00926 22.5434C8.00926 22.5434 9.76614 28.5764 12.7632 31.3653C17.207 35.577 27.5933 31.0807 28.0583 20.2098C28.3167 13.8922 31.8821 8.14375 30.3836 6.83469Z" fill="#FFDD67"/>
<path d="M30.3837 6.83493C30.1253 6.60727 29.8153 6.49344 29.5053 6.43652C29.5569 6.49344 29.6603 6.49344 29.712 6.55035C31.2621 7.85941 29.6603 10.8759 28.7819 13.6079C28.0584 15.7707 27.4384 17.9904 27.5417 20.1532C27.9551 29.6011 19.3257 34.0975 14.1584 32.39C19.2224 34.7235 28.6268 30.2841 28.2134 20.4377C28.1101 18.275 28.6785 16.1691 29.4536 13.8925C30.2804 11.1605 31.8822 8.14399 30.3837 6.83493Z" fill="#EBA352"/>
<path d="M23.5111 15.3721C20.3074 15.7705 15.6052 20.836 18.9122 26.3568C16.4836 20.779 20.4624 17.0226 22.9944 15.7136C23.2527 15.4859 23.5111 15.3721 23.5111 15.3721Z" fill="#EBA352"/>
</svg>
